<svg id="Capa_1" data-name="Capa 1" xmlns="http://www.w3.org/2000/svg" viewBox="0 0 100 97.65"><defs><style>.cls-1{fill:#da0280;}</style></defs><path class="cls-1" d="M67.08,29.4a27.2,27.2,0,0,0-17.63-7.85l-4,0A27,27,0,0,0,29.21,29a12.74,12.74,0,0,0-1,1.1l-2,2.36a26.3,26.3,0,0,0-5.06,14.87c0,.85.48,1.51,1.13,1.51a1.42,1.42,0,0,0,1.28-1.38v-.21a23.87,23.87,0,0,1,8.24-15.74A23.37,23.37,0,0,1,48.28,26a22.93,22.93,0,0,1-.21,45.81A23.36,23.36,0,0,1,31.65,66.1a23.88,23.88,0,0,1-8.09-15.8h0a1.43,1.43,0,0,0-1.31-1.37c-.66,0-1.17.65-1.16,1.51v.23A26.36,26.36,0,0,0,29.34,69,26.88,26.88,0,0,0,48.45,76.3,27.38,27.38,0,0,0,69.51,32.1Z"/><path class="cls-1" d="M47.45,51.47A84.27,84.27,0,0,0,61.17,50.1h0c.16,0,.28-.58.28-1.23s-.12-1.2-.28-1.24h0a84.74,84.74,0,0,0-11.12-1.19A85.31,85.31,0,0,0,48.7,32.36c0-.16-.56-.28-1.21-.28s-1.18.12-1.21.28h0A84.39,84.39,0,0,0,44.9,48.84v.08a2.54,2.54,0,0,0,2.53,2.55Z"/></svg>