<svg id="Capa_1" data-name="Capa 1" xmlns="http://www.w3.org/2000/svg" viewBox="0 0 100 97.65"><defs><style>.cls-1{fill:#da0280;}</style></defs><path class="cls-1" d="M26.22,61.35l2.3,2.33,4.61,4.64,4.65,4.61,2.35,2.31a26.44,26.44,0,0,0,16,7.28,25.88,25.88,0,0,0,24-11.83h0a1.15,1.15,0,0,0-.38-1.51h0a1.1,1.1,0,0,0,.55-1.37l-.07-.11A26.37,26.37,0,0,0,73,60.15a28.43,28.43,0,0,0-9.57-4.31,2.24,2.24,0,0,0-2,.52l-.06.06-4.07,3.8a4.23,4.23,0,0,1-5,.22,5,5,0,0,1-.69-.61l-1-1-4-4.06-4.07-4-1-1a5.69,5.69,0,0,1-.6-.7,4.2,4.2,0,0,1,.21-5L44.93,40l.07-.08a2.21,2.21,0,0,0,.51-2,28.94,28.94,0,0,0-4.36-9.61,26.75,26.75,0,0,0-7.62-7.18,1.06,1.06,0,0,0-1.35.52h0a1.17,1.17,0,0,0-1.52-.4l-.13.08a25.75,25.75,0,0,0-9.11,10.25,26.12,26.12,0,0,0-2.53,13.78,26.41,26.41,0,0,0,5,13.19A28.34,28.34,0,0,0,26.22,61.35Zm5.86-38.19h0v-.09h0A25.68,25.68,0,0,1,40.84,37.6c-1.11,1-2.17,2-3.42,3.26a9,9,0,0,0-.87,10.93,10.25,10.25,0,0,0,1.3,1.56l1,1,4,4.07,4.07,4,1,1a11,11,0,0,0,1.5,1.22,9.06,9.06,0,0,0,10.95-.87c1.26-1.25,2.23-2.3,3.26-3.41a25.69,25.69,0,0,1,14.54,8.81h0l-.1.12a23.37,23.37,0,0,1-21.55,8.62,22.69,22.69,0,0,1-10.74-4.5,23,23,0,0,1-2.18-2l-2.29-2.32L36.7,64.44l-4.64-4.61-2.31-2.28a23.72,23.72,0,0,1-1.94-2.19,22.79,22.79,0,0,1-4.5-10.77A23.4,23.4,0,0,1,32.08,23.16Z"/><path class="cls-1" d="M59.8,34.06a9.59,9.59,0,0,0-5.12.29h0a2.76,2.76,0,0,0-.16,1.24,2.75,2.75,0,0,0,.16,1.24h0a13.68,13.68,0,0,1,9.8,9.79,2.49,2.49,0,0,0,1.21.16,2.45,2.45,0,0,0,1.2-.16h0a9.39,9.39,0,0,0,.29-5.12,9.78,9.78,0,0,0-7.42-7.41Z"/><path class="cls-1" d="M78.48,49.18h0c0,.23.58.4,1.24.4s1.19-.17,1.24-.4v-.07A25.42,25.42,0,0,0,63.63,21.35a25.8,25.8,0,0,0-11.51-1c-.22,0-.4.55-.4,1.2s.18,1.19.4,1.21h.07A29.12,29.12,0,0,1,78.48,49.18Z"/></svg>