<svg id="Capa_1" data-name="Capa 1" xmlns="http://www.w3.org/2000/svg" viewBox="0 0 100 97.65"><defs><style>.cls-1{fill:#da0280;}</style></defs><path class="cls-1" d="M36,31.57c-.65,0-1.18.38-1.19.87v.13a15.23,15.23,0,0,0,4.59,10.75,15.69,15.69,0,0,0,8.9,4.34,60.07,60.07,0,0,0,.48,22.91h0c0,.13.58.23,1.23.23s1.2-.1,1.24-.23h0a60.25,60.25,0,0,0,.49-22.75,16.06,16.06,0,0,0,10.16-4.74,16.26,16.26,0,0,0-.09-23h0A16,16,0,0,0,50.4,15.39,15.76,15.76,0,0,0,39.28,20a15.19,15.19,0,0,0-4.47,10.76c0,.49.51.87,1.16.86s1.21-.33,1.25-.73v-.11a12.7,12.7,0,0,1,4.61-8.2,12.09,12.09,0,0,1,8.57-2.7,11.75,11.75,0,0,1-.11,23.45,12.17,12.17,0,0,1-8.53-2.75,12.7,12.7,0,0,1-4.5-8.21h0C37.2,31.91,36.64,31.57,36,31.57Z"/><path class="cls-1" d="M20.91,66.24a5.81,5.81,0,0,0-2.21,4.19,6.18,6.18,0,0,0,2.08,4.34,14.25,14.25,0,0,0,3.12,2.16,43.12,43.12,0,0,0,13,3.85,83.8,83.8,0,0,0,13.14,1,85,85,0,0,0,13.14-1,42.61,42.61,0,0,0,13-3.88,14.29,14.29,0,0,0,3.12-2.17,6.13,6.13,0,0,0,2-4.35A5.84,5.84,0,0,0,79,66.23,13.19,13.19,0,0,0,75.8,64.3a42.07,42.07,0,0,0-12.94-3,1.12,1.12,0,0,0-1.12,1.06,1.15,1.15,0,0,0,.77,1.33h.15a42.58,42.58,0,0,1,11.68,3.88,9.5,9.5,0,0,1,2.15,1.57c.54.57.75,1.08.64,1.28,0,.47-1.49,1.8-3.19,2.5a43.9,43.9,0,0,1-11.67,2.91,95.36,95.36,0,0,1-12.41.74,97.21,97.21,0,0,1-12.41-.8,42.13,42.13,0,0,1-11.63-3,10.41,10.41,0,0,1-2.19-1.33,2.43,2.43,0,0,1-.78-1.11c-.18-.5,1.3-2.07,3-2.88a43.69,43.69,0,0,1,11.68-3.76h0a1.2,1.2,0,0,0,.77-1.37,1.16,1.16,0,0,0-1.12-1.09H37a41.87,41.87,0,0,0-13,3A13,13,0,0,0,20.91,66.24Z"/></svg>